<?xml version="1.0" encoding="utf-8"?>
<svg width="300" height="300" viewBox="0 0 300 300" fill="none" aria-hidden="true" focusable="false" xmlns="http://www.w3.org/2000/svg">
  <rect x="210.339" y="32.956" width="51.858" height="230.21" style="stroke: rgb(237, 41, 57); fill: rgb(237, 41, 57);"/>
  <rect y="34.895" width="51.858" height="230.21" style="fill: rgb(255, 255, 255); stroke: rgb(255, 255, 255);" x="124.071"/>
  <rect y="34.895" width="56.705" height="230.21" style="fill: rgb(0, 38, 84); stroke: rgb(0, 38, 84);" x="36"/>
  <path d="M 251.613 0 L 48.387 0 C 21.663 0 0 21.663 0 48.387 L 0 251.613 C 0 278.337 21.663 300 48.387 300 L 251.613 300 C 278.332 300 300 278.337 300 251.613 L 300 48.387 C 300 21.663 278.332 0 251.613 0 Z M 48.387 261.29 C 43.04 261.29 38.71 256.96 38.71 251.613 L 38.71 48.387 C 38.71 43.04 43.04 38.71 48.387 38.71 L 87.097 38.71 L 87.097 261.29 L 48.387 261.29 Z M 125.806 261.29 L 125.806 38.71 L 174.194 38.71 L 174.194 261.29 L 125.806 261.29 Z M 261.29 251.613 C 261.29 256.96 256.955 261.29 251.613 261.29 L 212.903 261.29 L 212.903 38.71 L 251.613 38.71 C 256.955 38.71 261.29 43.04 261.29 48.387 L 261.29 251.613 Z" style="fill: rgb(0, 0, 0);"/>
</svg>