<?xml version="1.0" encoding="utf-8"?>
<svg width="300" height="300" viewBox="0 0 300 300" fill="none" aria-hidden="true" focusable="false" xmlns="http://www.w3.org/2000/svg">
  <g transform="matrix(4.68827, 0, 0, 4.68827, -84.411041, -84.391304)">
    <path d="M50,62A12,12,0,1,0,38,50,12,12,0,0,0,50,62Zm0-16a4,4,0,1,1-4,4A4,4,0,0,1,50,46Z" style="fill: rgb(0, 0, 0);"/>
    <path d="M20.58,62.59a12,12,0,0,1,6.89-4.31,23.89,23.89,0,0,1,0-16.54A12,12,0,0,0,41.73,27.48a23.86,23.86,0,0,1,16.3-.1,13.9,13.9,0,0,1,2.62-7.56,31.88,31.88,0,0,0-23.23.76A12,12,0,0,0,20.59,37.42a31.9,31.9,0,0,0,0,25.16ZM30,26a4,4,0,1,1-4,4A4,4,0,0,1,30,26Z" style="fill: rgb(0, 0, 0);"/>
    <path d="M50,82A32,32,0,0,0,80.17,39.35,13.9,13.9,0,0,1,72.61,42,24,24,0,0,1,41.73,72.53a12,12,0,0,1-4.31,6.89A31.82,31.82,0,0,0,50,82Z" style="fill: rgb(0, 0, 0);"/>
    <circle cx="72" cy="28" r="6" style="fill: rgb(0, 0, 0);"/>
    <circle cx="30" cy="70" r="4" style="fill: rgb(0, 0, 0);"/>
  </g>
</svg>