<?xml version="1.0" encoding="utf-8"?>
<svg width="300" height="300" viewBox="0 0 300 300" fill="none" aria-hidden="true" focusable="false" xmlns="http://www.w3.org/2000/svg">
  <rect x="37.318" y="158.481" width="221.971" height="96.931" style="fill: rgb(115, 199, 213); stroke: rgb(115, 199, 213);"/>
  <rect x="25.687" y="90.63" width="251.535" height="76.091" style="fill: rgb(115, 199, 213); stroke: rgb(115, 199, 213);"/>
  <rect x="126.009" y="50.404" width="50.404" height="59.128" style="fill: rgb(115, 199, 213); stroke: rgb(115, 199, 213);"/>
  <path d="M 281.709 61.595 C 268.913 53.964 252.818 54.625 240.697 63.282 L 209.247 85.733 L 182.812 38.066 C 168.835 12.812 132.759 12.151 117.877 36.884 C 117.638 37.273 117.413 37.667 117.193 38.066 L 90.758 85.733 L 59.308 63.282 C 35.825 46.493 2.978 61.421 0.176 90.148 C -0.092 92.923 -0.054 95.716 0.297 98.482 L 19.046 248.468 C 21.408 267.221 37.358 281.287 56.261 281.277 L 243.744 281.277 C 262.642 281.287 278.597 267.221 280.959 248.468 L 299.707 98.482 C 301.563 83.704 294.5 69.225 281.709 61.595 Z M 243.744 243.781 L 56.261 243.781 L 37.513 93.795 L 103.132 140.665 L 150.002 56.298 L 196.873 140.665 L 262.492 93.795 L 243.744 243.781 Z" style="fill: rgb(0, 0, 0);"/>
</svg>