<?xml version="1.0" encoding="utf-8"?>
<svg width="300" height="300" viewBox="0 0 300 300" fill="none" aria-hidden="true" focusable="false" xmlns="http://www.w3.org/2000/svg">
  <path d="M 251.613 0 L 48.387 0 C 21.663 0 0 21.668 0 48.387 L 0 251.613 C 0 278.337 21.663 300 48.387 300 L 251.613 300 C 278.337 300 300 278.337 300 251.613 L 300 48.387 C 300 21.668 278.337 0 251.613 0 Z M 48.387 261.29 C 43.045 261.29 38.71 256.96 38.71 251.613 L 38.71 135.484 L 87.097 135.484 L 87.097 261.29 L 48.387 261.29 Z M 125.806 261.29 L 125.806 135.484 L 174.194 135.484 L 174.194 261.29 L 125.806 261.29 Z M 261.29 251.613 C 261.29 256.96 256.96 261.29 251.613 261.29 L 212.903 261.29 L 212.903 135.484 L 261.29 135.484 L 261.29 251.613 Z M 261.29 96.774 L 38.71 96.774 L 38.71 48.387 C 38.71 43.045 43.045 38.71 48.387 38.71 L 251.613 38.71 C 256.96 38.71 261.29 43.045 261.29 48.387 L 261.29 96.774 Z" style="fill: rgb(0, 0, 0);"/>
</svg>