<?xml version="1.0" encoding="utf-8"?>
<svg width="300" height="300" viewBox="0 0 300 300" fill="none" aria-hidden="true" focusable="false" xmlns="http://www.w3.org/2000/svg">
  <rect x="172.052" y="145.88" width="72.698" height="52.343" style="fill: rgb(106, 197, 227); stroke: rgb(106, 197, 227);"/>
  <rect x="162.843" y="38.772" width="103.716" height="120.194" style="fill: rgb(106, 197, 227); stroke: rgb(106, 197, 227);"/>
  <rect x="116.317" y="80.452" width="86.753" height="142.488" style="fill: rgb(106, 197, 227); stroke: rgb(106, 197, 227);"/>
  <rect x="89.661" y="105.654" width="39.742" height="81.422" style="fill: rgb(106, 197, 227); stroke: rgb(106, 197, 227);"/>
  <rect x="137.641" y="55.735" width="38.772" height="34.895" style="fill: rgb(106, 197, 227); stroke: rgb(106, 197, 227);"/>
  <path d="M 203.577 12.215 C 177.997 12.142 153.449 22.317 135.417 40.461 L 72.466 103.369 C 69.241 106.602 67.429 110.986 67.429 115.554 L 67.429 220.357 L 0 287.785 L 48.741 287.785 L 91.799 244.727 L 196.602 244.727 C 201.175 244.732 205.558 242.919 208.787 239.69 L 271.695 176.739 C 324.165 124.303 300.195 34.73 228.551 15.505 C 220.404 13.322 212.012 12.215 203.577 12.215 Z M 247.367 152.412 L 189.454 210.281 L 126.245 210.281 L 212.361 124.166 L 187.99 99.795 L 101.875 185.91 L 101.875 122.702 L 159.744 64.789 C 193.472 31.062 251.061 46.494 263.406 92.565 C 269.133 113.944 263.023 136.76 247.367 152.412 Z" style="fill: rgb(0, 0, 0);"/>
</svg>