<?xml version="1.0" encoding="utf-8"?>
<svg width="300" height="300" viewBox="0 0 300 300" fill="none" aria-hidden="true" focusable="false" xmlns="http://www.w3.org/2000/svg">
  <rect x="70.759" y="30.048" width="157.027" height="189.499" style="fill: rgb(163, 19, 19); stroke: rgb(163, 19, 19);"/>
  <rect x="65.428" y="206.462" width="44.588" height="50.404" style="fill: rgb(163, 19, 19); stroke: rgb(163, 19, 19);"/>
  <rect x="182.714" y="205.008" width="47.011" height="52.342" style="stroke: rgb(163, 19, 19); fill: rgb(163, 19, 19);"/>
  <path d="M 71.572 299.969 C 80.731 300.018 89.498 296.249 95.764 289.567 L 150 231.509 L 204.43 289.567 C 221.702 308.04 252.493 300.894 259.857 276.698 C 260.8 273.592 261.279 270.364 261.279 267.118 L 261.279 48.382 C 261.279 21.661 239.618 0 212.897 0 L 87.103 0 C 60.382 0 38.721 21.661 38.721 48.382 L 38.721 267.118 C 38.745 285.252 53.439 299.945 71.572 299.969 Z M 77.427 48.382 C 77.427 43.041 81.757 38.706 87.103 38.706 L 212.897 38.706 C 218.238 38.706 222.573 43.041 222.573 48.382 L 222.573 252.313 L 150 174.902 L 77.427 252.313 L 77.427 48.382 Z" style="fill: rgb(0, 0, 0);"/>
</svg>