<?xml version="1.0" encoding="utf-8"?>
<svg width="300" height="300" viewBox="0 0 300 300" fill="none" aria-hidden="true" focusable="false" xmlns="http://www.w3.org/2000/svg">
  <rect x="31.987" y="49.435" width="236.995" height="205.977" style="stroke: rgb(0, 0, 0); fill: rgb(226, 153, 100);"/>
  <path d="M 56.25 281.25 L 243.75 281.25 C 274.814 281.25 300 256.064 300 225 L 300 75 C 300 43.931 274.814 18.75 243.75 18.75 L 56.25 18.75 C 25.186 18.75 0 43.931 0 75 L 0 225 C 0 256.064 25.186 281.25 56.25 281.25 Z M 243.75 243.75 L 56.25 243.75 C 45.895 243.75 37.5 235.355 37.5 225 L 37.5 124.828 L 105.094 173.109 C 131.958 192.3 168.042 192.3 194.906 173.109 L 262.5 124.828 L 262.5 225 C 262.5 235.355 254.105 243.75 243.75 243.75 Z M 56.25 56.25 L 243.75 56.25 C 254.105 56.25 262.5 64.641 262.5 75 L 262.5 78.75 L 173.109 142.594 C 159.23 152.288 140.77 152.288 126.891 142.594 L 37.5 78.75 L 37.5 75 C 37.5 64.641 45.895 56.25 56.25 56.25 Z" style="fill: rgb(0, 0, 0);"/>
</svg>