<?xml version="1.0" encoding="utf-8"?>
<svg width="300" height="300" viewBox="0 0 300 300" fill="none" aria-hidden="true" focusable="false" xmlns="http://www.w3.org/2000/svg">
  <g transform="matrix(4.68849, 0, 0, 4.68849, -84.392807, -84.424416)">
    <path d="M69.51,18a12.41,12.41,0,0,0-8.83,3.66L39.86,42.48A19.87,19.87,0,0,0,34,56.63V66h9.37a19.87,19.87,0,0,0,14.14-5.86L78.34,39.31A12.49,12.49,0,0,0,69.51,18Zm3.17,15.66L51.86,54.48A11.92,11.92,0,0,1,43.37,58H42V56.63a11.92,11.92,0,0,1,3.52-8.49L66.34,27.31a4.49,4.49,0,1,1,6.34,6.34Z" style="fill: rgb(0, 0, 0);"/>
    <path d="M30,82H62A12,12,0,0,0,74,70V62H66v8a4,4,0,0,1-4,4H30a4,4,0,0,1-4-4V38a4,4,0,0,1,4-4h8V26H30A12,12,0,0,0,18,38V70A12,12,0,0,0,30,82Z" style="fill: rgb(0, 0, 0);"/>
  </g>
</svg>