<?xml version="1.0" encoding="utf-8"?>
<svg width="300" height="300" viewBox="0 0 300 300" fill="none" aria-hidden="true" focusable="false" xmlns="http://www.w3.org/2000/svg">
  <rect x="118.255" y="63.005" width="40.711" height="164.782" style="fill: rgb(63, 75, 211); stroke: rgb(63, 75, 211);"/>
  <rect x="210.824" y="33.441" width="58.643" height="49.435" style="fill: rgb(63, 75, 211); stroke: rgb(63, 75, 211);"/>
  <rect x="61.066" y="76.09" width="198.223" height="27.141" style="fill: rgb(63, 75, 211); stroke: rgb(63, 75, 211);"/>
  <rect x="26.171" y="97.415" width="230.21" height="68.821" style="fill: rgb(63, 75, 211); stroke: rgb(63, 75, 211);"/>
  <rect x="146.365" y="48.95" width="78.998" height="217.124" style="fill: rgb(63, 75, 211); stroke: rgb(63, 75, 211);"/>
  <path d="M 248.956 0.005 C 243.477 0.005 238.03 0.891 232.832 2.63 L 40.276 66.799 C -2.796 81.236 -14.083 136.889 19.961 166.972 C 25.01 171.435 30.789 175.002 37.042 177.514 L 97.977 201.935 L 122.68 263.667 C 131.384 285.67 152.688 300.088 176.349 299.994 L 177.053 299.994 C 202.552 300.106 225.243 283.827 233.3 259.636 L 297.376 67.034 C 308.307 34.026 283.727 0 248.956 0.005 Z M 261.799 55.222 L 197.583 247.777 C 194.635 256.599 186.357 262.528 177.053 262.495 L 176.349 262.495 C 168.076 262.495 160.642 257.438 157.6 249.746 L 134.445 192.185 L 195.38 131.25 L 168.709 104.72 L 107.774 165.655 L 50.963 142.687 C 35.594 136.617 32.561 116.18 45.503 105.906 C 47.485 104.331 49.731 103.122 52.135 102.329 L 244.691 38.207 C 253.428 35.296 262.451 41.793 262.456 51.003 C 262.47 52.433 262.249 53.858 261.799 55.222 Z" style="fill: rgb(0, 0, 0);"/>
</svg>