<?xml version="1.0" encoding="utf-8"?>
<svg width="300" height="300" viewBox="0 0 300 300" fill="none" aria-hidden="true" focusable="false" xmlns="http://www.w3.org/2000/svg">
  <rect x="29.079" y="117.771" width="205.008" height="61.551" style="fill: rgb(230, 134, 230); stroke: rgb(230, 134, 230);"/>
  <rect x="100.808" y="48.466" width="59.127" height="206.462" style="stroke: rgb(230, 134, 230); fill: rgb(230, 134, 230);"/>
  <g transform="matrix(4.688619, 0, 0, 4.688619, -84.466766, -84.430954)">
    <path d="M23,57.41l11.09,4.51L38.59,73a8,8,0,0,0,14.82,0l4.51-11.09L69,57.41a8,8,0,0,0,0-14.82L57.92,38.08,53.41,27a8,8,0,0,0-14.82,0L34.08,38.08,23,42.59a8,8,0,0,0,0,14.82Zm17.23-13.2L46,30l5.79,14.21L66,50,51.79,55.79,46,70,40.21,55.79,26,50Z" style="fill: rgb(0, 0, 0);"/>
    <polygon points="74 34 76.83 28.83 82 26 76.83 23.17 74 18 71.17 23.17 66 26 71.17 28.83 74 34" style="fill: rgb(0, 0, 0);"/>
    <polygon points="74 82 76.83 76.83 82 74 76.83 71.17 74 66 71.17 71.17 66 74 71.17 76.83 74 82" style="fill: rgb(0, 0, 0);"/>
  </g>
</svg>