<?xml version="1.0" encoding="utf-8"?>
<svg width="300" height="300" viewBox="0 0 300 300" fill="none" aria-hidden="true" focusable="false" xmlns="http://www.w3.org/2000/svg">
  <ellipse style="fill: rgb(52, 168, 83); stroke: rgb(52, 168, 83);" cx="69.819" cy="60.61" rx="32.5" ry="32.5"/>
  <path d="M 69.457 121.875 C 116.868 121.875 146.504 71.096 122.795 30.47 C 99.092 -10.157 39.822 -10.157 16.118 30.47 C 10.712 39.732 7.865 50.241 7.865 60.938 C 7.865 94.594 35.439 121.875 69.457 121.875 Z M 69.457 37.501 C 87.693 37.501 99.092 57.034 89.972 72.657 C 80.856 88.28 58.058 88.28 48.942 72.657 C 46.862 69.094 45.768 65.054 45.768 60.938 C 45.768 47.996 56.376 37.501 69.457 37.501 Z" style="fill: rgb(0, 0, 0);"/>
  <ellipse style="stroke: rgb(234, 67, 53); fill: rgb(234, 67, 53);" cx="231.665" cy="237.964" rx="32.5" ry="32.5"/>
  <path d="M 292.135 239.062 C 292.135 192.155 240.81 162.835 199.747 186.291 C 158.685 209.742 158.685 268.383 199.747 291.834 C 209.109 297.183 219.732 300 230.543 300 C 264.561 300 292.135 272.719 292.135 239.062 Z M 206.854 239.062 C 206.854 221.02 226.597 209.742 242.388 218.766 C 258.179 227.784 258.179 250.341 242.388 259.359 C 238.787 261.417 234.703 262.5 230.543 262.5 C 217.462 262.5 206.854 252.005 206.854 239.062 Z" style="fill: rgb(0, 0, 0);"/>
  <path d="M 244.757 90.657 L 244.757 0.001 L 206.854 0.001 L 206.854 90.657 L 178.427 62.532 L 151.611 89.063 L 204.296 141.188 C 216.159 152.935 235.404 152.935 247.268 141.188 L 300 89.063 L 273.184 62.532 L 244.757 90.657 Z" style="fill: rgb(0, 0, 0);"/>
  <path d="M 26.816 237.469 L 55.243 209.344 L 55.243 300 L 93.146 300 L 93.146 209.344 L 121.573 237.469 L 148.389 210.938 L 95.704 158.813 C 83.841 147.061 64.596 147.061 52.732 158.813 L 0 210.938 L 26.816 237.469 Z" style="fill: rgb(0, 0, 0);"/>
</svg>