<?xml version="1.0" encoding="utf-8"?>
<svg width="300" height="300" viewBox="0 0 300 300" fill="none" aria-hidden="true" focusable="false" xmlns="http://www.w3.org/2000/svg">
  <path d="M 55.977 183.914 C 30.061 201.135 14.509 230.196 14.569 261.301 L 14.569 300 L 285.431 300 L 285.431 261.301 C 285.491 230.202 269.967 201.141 244.077 183.914 L 242.383 182.751 C 232.036 175.866 220.956 170.149 209.344 165.731 C 221 151.854 227.388 134.317 227.388 116.198 L 227.388 77.509 C 227.388 17.926 162.898 -19.303 111.301 10.483 C 87.361 24.304 72.612 49.852 72.612 77.509 L 72.612 116.198 C 72.603 134.352 79.009 151.933 90.7 165.825 C 79.087 170.248 68.007 175.96 57.661 182.845 L 55.977 183.914 Z M 111.301 116.198 L 111.301 77.509 C 111.301 47.72 143.544 29.103 169.344 43.991 C 181.316 50.901 188.699 63.676 188.699 77.509 L 188.699 116.198 C 188.699 145.993 156.447 164.603 130.655 149.705 C 118.678 142.792 111.301 130.018 111.301 116.198 Z M 77.443 216.171 L 79.138 215.063 C 122.067 186.445 177.977 186.445 220.906 215.063 L 222.6 216.171 C 237.681 226.237 246.742 243.169 246.732 261.301 L 53.268 261.301 C 53.268 243.159 62.345 226.228 77.443 216.171 Z" style="fill: rgb(0, 0, 0);"/>
</svg>